<svg width="14" height="22" viewBox="0 0 14 22" fill="none" xmlns="http://www.w3.org/2000/svg">
<path d="M9.11976 11.0047L0.889619 2.77415C0.663001 2.54806 0.538335 2.24579 0.538335 1.92348C0.538335 1.60099 0.663001 1.29889 0.889619 1.07246L1.61079 0.351642C1.83705 0.124846 2.1395 0 2.46181 0C2.78412 0 3.08622 0.124846 3.31266 0.351642L13.112 10.1508C13.3393 10.3779 13.4638 10.6814 13.4629 11.0041C13.4638 11.3282 13.3395 11.6314 13.112 11.8587L3.32178 21.6484C3.09534 21.8752 2.79325 22 2.47076 22C2.14845 22 1.84635 21.8752 1.61973 21.6484L0.898741 20.9275C0.429587 20.4584 0.429587 19.6946 0.898741 19.2257L9.11976 11.0047Z" fill="black"/>
</svg>
