<svg width="13" height="22" viewBox="0 0 13 22" fill="none" xmlns="http://www.w3.org/2000/svg">
<path d="M4.34313 11.0047L12.5733 2.77415C12.7999 2.54806 12.9246 2.24579 12.9246 1.92348C12.9246 1.60099 12.7999 1.29889 12.5733 1.07246L11.8521 0.351642C11.6258 0.124846 11.3234 0 11.0011 0C10.6788 0 10.3767 0.124846 10.1502 0.351642L0.350932 10.1508C0.123598 10.3779 -0.000889517 10.6814 4.79194e-06 11.0041C-0.000889517 11.3282 0.123419 11.6314 0.350932 11.8587L10.1411 21.6484C10.3675 21.8752 10.6696 22 10.9921 22C11.3144 22 11.6165 21.8752 11.8432 21.6484L12.5641 20.9275C13.0333 20.4584 13.0333 19.6946 12.5641 19.2257L4.34313 11.0047Z" fill="black"/>
</svg>
